<svg width="104" height="26" viewBox="0 0 104 26" fill="none" xmlns="http://www.w3.org/2000/svg">
<path d="M7.672 21.672C8.14133 21.672 8.58933 21.6613 9.016 21.64C9.44266 21.6186 9.784 21.5866 10.04 21.544V17.928C9.848 17.8853 9.56 17.8426 9.176 17.8C8.792 17.7573 8.44 17.736 8.12 17.736C7.672 17.736 7.24533 17.768 6.84 17.832C6.456 17.8746 6.11466 17.9706 5.816 18.12C5.51733 18.2693 5.28266 18.472 5.112 18.728C4.94133 18.984 4.856 19.304 4.856 19.688C4.856 20.4346 5.10133 20.9573 5.592 21.256C6.104 21.5333 6.79733 21.672 7.672 21.672ZM7.288 7.71997C8.696 7.71997 9.86933 7.87997 10.808 8.19997C11.7467 8.51997 12.4933 8.97863 13.048 9.57597C13.624 10.1733 14.0293 10.8986 14.264 11.752C14.4987 12.6053 14.616 13.5546 14.616 14.6V24.52C13.9333 24.6693 12.984 24.84 11.768 25.032C10.552 25.2453 9.08 25.352 7.352 25.352C6.264 25.352 5.272 25.256 4.376 25.064C3.50133 24.872 2.744 24.5626 2.104 24.136C1.464 23.688 0.973328 23.112 0.631995 22.408C0.290662 21.704 0.119995 20.84 0.119995 19.816C0.119995 18.8346 0.311995 18.0026 0.695995 17.32C1.10133 16.6373 1.63466 16.0933 2.296 15.688C2.95733 15.2826 3.71466 14.9946 4.568 14.824C5.42133 14.632 6.30666 14.536 7.224 14.536C7.84266 14.536 8.38666 14.568 8.856 14.632C9.34666 14.6746 9.74133 14.7386 10.04 14.824V14.376C10.04 13.5653 9.79466 12.9146 9.304 12.424C8.81333 11.9333 7.96 11.688 6.744 11.688C5.93333 11.688 5.13333 11.752 4.344 11.88C3.55466 11.9866 2.872 12.1466 2.296 12.36L1.688 8.51997C1.96533 8.43463 2.30666 8.3493 2.712 8.26397C3.13866 8.1573 3.59733 8.07197 4.088 8.00797C4.57866 7.92264 5.09066 7.85864 5.624 7.81597C6.17866 7.75197 6.73333 7.71997 7.288 7.71997Z" fill="#27187F"/>
<path d="M25.6475 25.32C24.2608 25.2986 23.1302 25.1493 22.2555 24.872C21.4022 24.5946 20.7195 24.2106 20.2075 23.72C19.7168 23.208 19.3755 22.6 19.1835 21.896C19.0128 21.1706 18.9275 20.36 18.9275 19.464V0.935968L23.6955 0.167969V18.504C23.6955 18.9306 23.7275 19.3146 23.7915 19.656C23.8555 19.9973 23.9728 20.2853 24.1435 20.52C24.3355 20.7546 24.6022 20.9466 24.9435 21.096C25.2848 21.2453 25.7435 21.3413 26.3195 21.384L25.6475 25.32Z" fill="#27187F"/>
<path d="M35.7725 25.32C34.3858 25.2986 33.2552 25.1493 32.3805 24.872C31.5272 24.5946 30.8445 24.2106 30.3325 23.72C29.8418 23.208 29.5005 22.6 29.3085 21.896C29.1378 21.1706 29.0525 20.36 29.0525 19.464V0.935968L33.8205 0.167969V18.504C33.8205 18.9306 33.8525 19.3146 33.9165 19.656C33.9805 19.9973 34.0978 20.2853 34.2685 20.52C34.4605 20.7546 34.7272 20.9466 35.0685 21.096C35.4098 21.2453 35.8685 21.3413 36.4445 21.384L35.7725 25.32Z" fill="#27187F"/>
<path d="M46.1535 2.56797C49.4602 2.56797 51.9988 3.15463 53.7695 4.32797C55.5402 5.47997 56.4255 7.37864 56.4255 10.024C56.4255 12.6906 55.5295 14.6213 53.7375 15.816C51.9455 16.9893 49.3855 17.576 46.0575 17.576H44.4895V25H39.4975V3.14397C40.5855 2.93064 41.7375 2.7813 42.9535 2.69597C44.1695 2.61064 45.2362 2.56797 46.1535 2.56797ZM46.4735 6.82397C46.1108 6.82397 45.7482 6.83464 45.3855 6.85597C45.0442 6.8773 44.7455 6.89864 44.4895 6.91997V13.32H46.0575C47.7855 13.32 49.0868 13.0853 49.9615 12.616C50.8362 12.1466 51.2735 11.272 51.2735 9.99197C51.2735 9.3733 51.1562 8.8613 50.9215 8.45597C50.7082 8.05064 50.3882 7.73064 49.9615 7.49597C49.5562 7.23997 49.0548 7.0693 48.4575 6.98397C47.8602 6.8773 47.1988 6.82397 46.4735 6.82397Z" fill="#27187F"/>
<path d="M75.0465 16.552C75.0465 17.8746 74.8545 19.0906 74.4705 20.2C74.0865 21.288 73.5318 22.2266 72.8065 23.016C72.0812 23.784 71.2065 24.3813 70.1825 24.808C69.1798 25.2346 68.0492 25.448 66.7905 25.448C65.5532 25.448 64.4225 25.2346 63.3985 24.808C62.3958 24.3813 61.5318 23.784 60.8065 23.016C60.0812 22.2266 59.5158 21.288 59.1105 20.2C58.7052 19.0906 58.5025 17.8746 58.5025 16.552C58.5025 15.2293 58.7052 14.024 59.1105 12.936C59.5372 11.848 60.1132 10.92 60.8385 10.152C61.5852 9.38397 62.4598 8.78664 63.4625 8.35997C64.4865 7.9333 65.5958 7.71997 66.7905 7.71997C68.0065 7.71997 69.1158 7.9333 70.1185 8.35997C71.1425 8.78664 72.0172 9.38397 72.7425 10.152C73.4678 10.92 74.0332 11.848 74.4385 12.936C74.8438 14.024 75.0465 15.2293 75.0465 16.552ZM70.1825 16.552C70.1825 15.08 69.8838 13.928 69.2865 13.096C68.7105 12.2426 67.8785 11.816 66.7905 11.816C65.7025 11.816 64.8598 12.2426 64.2625 13.096C63.6652 13.928 63.3665 15.08 63.3665 16.552C63.3665 18.024 63.6652 19.1973 64.2625 20.072C64.8598 20.9253 65.7025 21.352 66.7905 21.352C67.8785 21.352 68.7105 20.9253 69.2865 20.072C69.8838 19.1973 70.1825 18.024 70.1825 16.552Z" fill="#27187F"/>
<path d="M88.884 12.392C88.4573 12.2853 87.956 12.1786 87.38 12.072C86.804 11.944 86.1853 11.88 85.524 11.88C85.2253 11.88 84.8627 11.912 84.436 11.976C84.0307 12.0186 83.7213 12.072 83.508 12.136V25H78.74V9.06397C79.5933 8.7653 80.596 8.48797 81.748 8.23197C82.9213 7.95464 84.2227 7.81597 85.652 7.81597C85.908 7.81597 86.2173 7.8373 86.58 7.87997C86.9427 7.9013 87.3053 7.94397 87.668 8.00797C88.0307 8.05063 88.3933 8.11463 88.756 8.19997C89.1187 8.26397 89.428 8.3493 89.684 8.45597L88.884 12.392Z" fill="#27187F"/>
<path d="M92.08 3.97597L96.848 3.20797V8.16797H102.576V12.136H96.848V18.056C96.848 19.0586 97.0187 19.8586 97.36 20.456C97.7227 21.0533 98.4373 21.352 99.504 21.352C100.016 21.352 100.539 21.3093 101.072 21.224C101.627 21.1173 102.128 20.9786 102.576 20.808L103.248 24.52C102.672 24.7546 102.032 24.9573 101.328 25.128C100.624 25.2986 99.76 25.384 98.736 25.384C97.4347 25.384 96.3573 25.2133 95.504 24.872C94.6507 24.5093 93.968 24.0186 93.456 23.4C92.944 22.76 92.5813 21.992 92.368 21.096C92.176 20.2 92.08 19.208 92.08 18.12V3.97597Z" fill="#27187F"/>
</svg>
